<svg width="261" height="33" viewBox="0 0 261 33" fill="none" xmlns="http://www.w3.org/2000/svg">
<path d="M9.28771 7.40143V33H17.841V7.40143H27.0856V0H0V7.40143H9.28771Z" fill="#7380EC"/>
<path d="M54.6121 22.6286C56.4696 21.6386 57.9384 20.2714 58.9751 18.48C60.0119 16.6886 60.5303 14.6143 60.5303 12.21C60.5303 9.75857 59.9687 7.59 58.8887 5.75143C57.7656 3.91286 56.2104 2.49857 54.2233 1.50857C52.1929 0.518572 49.817 0 47.0955 0H33.2719V7.35429H46.5771C48.3051 7.35429 49.6442 7.77857 50.5514 8.62714C51.4154 9.47572 51.8905 10.7014 51.8905 12.21C51.8905 13.7657 51.4154 14.9443 50.5514 15.7929C49.6442 16.6414 48.3051 17.0186 46.5771 17.0186H33.2719V33H41.8253V24.2314H46.4907L51.9769 33H61.1351L54.6121 22.6286Z" fill="#7380EC"/>
<path d="M86.3493 0H77.9256L64.5772 33H73.3033L75.6793 26.5886L78.1848 19.7057L82.0726 9.14572L85.9605 19.7057L88.466 26.5886L90.842 33H99.7409L86.3493 0Z" fill="#7380EC"/>
<path d="M134.239 7.77857C132.814 5.32714 130.827 3.39429 128.278 2.02714C125.686 0.707143 122.749 0 119.465 0H105.167V7.44857H119.12C121.712 7.44857 123.785 8.25 125.34 9.85286C126.896 11.5029 127.716 13.7186 127.716 16.5C127.716 19.3286 126.896 21.5443 125.34 23.1471C123.785 24.75 121.712 25.5514 119.12 25.5514H113.72V16.7829H105.167V33H119.465C122.749 33 125.686 32.34 128.278 30.9729C130.827 29.6529 132.814 27.72 134.239 25.2214C135.622 22.77 136.356 19.8471 136.356 16.5C136.356 13.2 135.622 10.2771 134.239 7.77857Z" fill="#7380EC"/>
<path d="M167.831 0H143.856V7.21286H167.831V0ZM167.831 12.7757H143.856V19.7529H167.831V12.7757ZM143.856 25.7871V33H167.831V25.7871H143.856Z" fill="#7380EC"/>
<path d="M203.182 18.9043C202.188 17.49 200.806 16.4529 199.121 15.7929C200.374 15.0857 201.41 14.0957 202.102 12.87C202.793 11.6443 203.182 10.23 203.182 8.62714C203.182 5.98714 202.145 3.91286 200.158 2.35714C198.127 0.80143 195.19 0 191.345 0H175.88V6.74143H190.222C193.073 6.74143 194.542 7.82572 194.542 9.9C194.542 12.0686 193.073 13.1057 190.222 13.1057H175.88V19.5643H191.518C194.499 19.5643 196.011 20.6957 196.011 22.9114C196.011 25.1743 194.499 26.2586 191.518 26.2586H175.88V33H192.209C196.227 33 199.294 32.2457 201.454 30.6429C203.57 29.0871 204.65 26.8714 204.65 23.9486C204.65 21.9686 204.132 20.3186 203.182 18.9043Z" fill="#7380EC"/>
<path d="M212.123 0V33H220.676V0H212.123Z" fill="#7380EC"/>
<path d="M258.876 7.77857C257.45 5.32714 255.463 3.39429 252.914 2.02714C250.323 0.707143 247.385 0 244.102 0H229.803V7.44857H243.756C246.348 7.44857 248.422 8.25 249.977 9.85286C251.532 11.5029 252.353 13.7186 252.353 16.5C252.353 19.3286 251.532 21.5443 249.977 23.1471C248.422 24.75 246.348 25.5514 243.756 25.5514H238.357V16.7829H229.803V33H244.102C247.385 33 250.323 32.34 252.914 30.9729C255.463 29.6529 257.45 27.72 258.876 25.2214C260.258 22.77 260.993 19.8471 260.993 16.5C260.993 13.2 260.258 10.2771 258.876 7.77857Z" fill="#7380EC"/>
</svg>
